<svg id="icons" enable-background="new 0 0 64 64" height="512" viewBox="0 0 64 64" width="512" xmlns="http://www.w3.org/2000/svg"><path d="m56 63.5c.553 0 1-.447 1-1v-4c0-.553-.447-1-1-1-.552 0-1-.448-1-1 0-.553-.447-1-1-1h-44c-.553 0-1 .447-1 1 0 .552-.448 1-1 1-.553 0-1 .447-1 1v4c0 .553.447 1 1 1s1-.447 1-1v-3.185c.848-.302 1.514-.968 1.815-1.815h42.369c.302.848.968 1.514 1.815 1.815v3.185c.001.553.448 1 1.001 1z"/><path d="m63 46.5h-1v-6.002c0-3.859-3.141-7-7-7 0 0 0 0-.001 0l-2.999.002v-1.625c3.58-2.078 5.999-5.943 6-10.372 0-.001 0-.001 0-.001v-9.004c0-2.967-2.167-5.432-5-5.91v-3.09c0-.553-.447-1-1-1h-8c-.005 0-.009.003-.013.003-5.508.007-9.987 4.489-9.987 9.997v9.002c0 4.43 2.419 8.297 6 10.375v1.625l-2.999-.002c-.001 0-.001 0-.001 0-3.859 0-7 3.141-7 7v2.006h-2v-12.998c0-1.654-1.346-3-3-3h-19.999c-1.654 0-3 1.346-3 3v15.996c0 .352.072.685.184.998h-1.185c-.553 0-1 .447-1 1v4c0 .553.447 1 1 1h1v10c0 .553.447 1 1 1s1-.447 1-1v-10h56v10c0 .553.447 1 1 1s1-.447 1-1v-10h1c.553 0 1-.447 1-1v-4c0-.553-.447-1-1-1zm-19-42c.004 0 .006-.002.01-.002h6.99v3c0 .553.447 1 1 1 2.206 0 4 1.794 4 4v2.586l-1.293-1.293c-.014-.014-.031-.018-.046-.03-.052-.046-.109-.078-.168-.112-.056-.031-.107-.066-.166-.087s-.119-.025-.181-.035c-.065-.01-.128-.022-.193-.02-.061.003-.117.021-.178.035-.067.016-.133.029-.197.06-.017.008-.035.007-.052.016-.035.02-3.539 1.881-7.526 1.881-3.968 0-7.492-1.862-7.527-1.881-.016-.009-.034-.008-.051-.016-.064-.03-.131-.044-.199-.061-.061-.014-.117-.031-.178-.034-.064-.003-.125.01-.188.019-.064.01-.126.016-.188.037-.057.02-.107.054-.161.085-.06.034-.118.066-.171.113-.014.013-.031.017-.045.03l-1.292 1.293v-2.586c0-4.41 3.589-7.998 8-7.998zm-8 17v-3.588l2.204-2.204c1.309.596 4.355 1.79 7.796 1.79s6.487-1.194 7.796-1.79l2.204 2.204v3.588c0 5.513-4.486 9.998-10 9.998s-10-4.485-10-9.998zm10 11.998c1.404 0 2.747-.255 4-.7v1.288l-1.27 1.269-2.414-.805c-.037-.013-.074-.006-.111-.014-.068-.015-.134-.025-.205-.025-.07 0-.137.011-.204.025-.038.008-.075.001-.112.014l-2.414.805-1.27-1.269v-1.288c1.253.445 2.596.7 4 .7zm-14 7c0-2.757 2.243-5 5-5l3.586.002 1.707 1.705c.016.016.037.021.054.035.065.059.137.104.216.144.032.016.062.035.095.048.109.04.224.066.343.066.104 0 .211-.017.316-.052l2.683-.894 2.684.895c.105.035.212.052.316.052.119 0 .233-.026.343-.066.034-.013.063-.032.095-.048.079-.039.15-.085.216-.144.017-.015.038-.02.054-.035l1.707-1.705 3.585-.003c2.757 0 5 2.243 5 5v6.002h-21.183c.111-.313.183-.646.183-.996v-2c0-.553-.447-1-1-1h-6zm5 4.006v1c0 .545-.438.985-.98.996h-8.203c.11-.312.182-.642.182-.99 0-.003.002-.005.002-.008v-.998zm-31.999-15.998h19.999c.552 0 1 .448 1 1v13.993c0 .002-.001.003-.001.005s.001.003.001.005v1.99c0 .002-.001.003-.001.005 0 .545-.438.985-.98.996h-20.028c-.547-.006-.99-.449-.99-.998v-15.996c0-.552.448-1 1-1zm56.999 21.994h-60v-2h1.99c.004 0 .006.002.01.002h20.989c.004 0 .007.002.01.002h11.001c.014 0 .025-.004.039-.004h24.951c.004 0 .006.002.01.002s.006-.002.01-.002h.99z"/><path d="m46.03 45.498c.552 0 1-.447 1-1s-.448-1-1-1h-.01c-.552 0-.994.447-.994 1s.452 1 1.004 1z"/><path d="m46.03 41.498c.552 0 1-.447 1-1s-.448-1-1-1h-.01c-.552 0-.994.447-.994 1s.452 1 1.004 1z"/><path d="m9.999 39.504h1.143c.095.363.238.703.425 1.019l-.811.81c-.391.39-.391 1.023 0 1.414.195.195.451.293.707.293s.512-.098.707-.293l.81-.81c.596.352 1.28.567 2.021.567.739 0 1.424-.216 2.02-.566l.809.809c.195.195.451.293.707.293s.512-.098.707-.293c.391-.391.391-1.023 0-1.414l-.809-.809c.186-.315.33-.656.425-1.02h1.141c.553 0 1-.447 1-1s-.447-1-1-1h-1.141c-.095-.363-.239-.704-.426-1.02l.809-.809c.391-.391.391-1.023 0-1.414s-1.023-.391-1.414 0l-.328.328v-.088c0-1.379-1.121-2.5-2.5-2.5s-2.5 1.121-2.5 2.5v.088l-.328-.328c-.391-.391-1.023-.391-1.414 0s-.391 1.023 0 1.414l.81.81c-.187.315-.33.655-.425 1.019h-1.145c-.553 0-1 .447-1 1s.447 1 1 1zm4.489-2.925c.164-.044.334-.075.512-.075 1.103 0 2 .897 2 2 0 .178-.031.348-.074.512zm.511-2.577c.275 0 .5.225.5.5v.053c-.165-.021-.328-.051-.499-.051-.172 0-.335.029-.501.051v-.053c0-.275.225-.5.5-.5zm.512 6.428c-.164.043-.333.074-.511.074-1.103 0-2-.897-2-2 0-.178.031-.347.074-.511z"/><path d="m14.999 24.504c.553 0 1-.447 1-1 4.412 0 8.002-3.59 8.002-8.002v-11.992c0-.004.001-.007.001-.01 0-.553-.447-1-1-1-.001 0-.001 0-.001 0-.553 0-1 .447-1 1v.005c-.003.549-.448.993-.997.993h-2c-.002 0-.004.001-.007.001-1.651-.003-2.993-1.347-2.993-2.999 0-.553-.447-1-1-1-.001 0-.001 0-.001 0-.553 0-1 .447-1 1 0 1.652-1.343 2.996-2.993 2.999-.003 0-.005-.001-.007-.001h-2c-.551 0-.998-.447-.998-.998 0-.553-.447-1-1-1s-1 .447-1 1v11.994c0 .004-.002.006-.002.01 0 4.409 3.587 7.996 7.996 8 0 .553.447 1 1 1zm-6.996-8.992c0-.003.002-.005.002-.008v-9.19c.313.111.646.184.998.184h1.99c.004 0 .007.002.01.002 1.642 0 3.088-.806 4.001-2.031.912 1.226 2.358 2.031 4 2.031.004 0 .006-.002.01-.002h1.99c.352 0 .684-.072.997-.184v9.188c0 3.31-2.692 6.002-6.002 6.002-.366 0-.704.105-1 .278-.292-.171-.627-.275-.988-.277-.002 0-.004-.001-.006-.001-3.307 0-5.997-2.688-6.002-5.992z"/><path d="m14.999 17.5c.553 0 1-.447 1-1v-5.998c0-.553-.447-1-1-1s-1 .447-1 1v5.998c0 .553.447 1 1 1z"/></svg>